<?xml version="1.0" encoding="UTF-8" standalone="no"?>
<!-- Created with Inkscape (http://www.inkscape.org/) -->

<svg
   width="209.282mm"
   height="69.723mm"
   viewBox="0 0 209.282 69.723"
   version="1.1"
   id="svg2876"
   xmlns="http://www.w3.org/2000/svg"
   xmlns:svg="http://www.w3.org/2000/svg">
  <defs
     id="defs2873">
    <clipPath
       id="clipPath1958-0"
       clipPathUnits="userSpaceOnUse">
      <rect
         y="1046.0277"
         x="1020.2495"
         height="237.85999"
         width="423.33252"
         id="rect1960-0"
         style="opacity:1;fill:#00122d;fill-opacity:1;stroke-width:7.67363;stroke-linecap:round;paint-order:stroke fill markers;stop-color:#000000" />
    </clipPath>
  </defs>
  <g
     id="layer1">
    <path
       transform="matrix(3.9078465,0,0,3.9078465,-4063.537,-4894.0522)"
       clip-path="url(#clipPath1958-0)"
       id="path3731"
       d="m 1048.2201,1269.6889 c -0.9027,-0.087 -1.8452,-0.2953 -2.4809,-0.548 -1.9724,-0.7841 -3.5698,-2.2319 -4.494,-4.0732 -0.6329,-1.2612 -0.8956,-2.3824 -0.8929,-3.8096 0,-1.4194 0.262,-2.5095 0.8968,-3.7716 0.8087,-1.6079 2.107,-2.9044 3.7218,-3.7166 1.2434,-0.6254 2.376,-0.8926 3.7833,-0.8926 0.8571,0 1.3235,0.057 2.1341,0.263 1.5427,0.391 3.1035,1.3529 4.1695,2.5694 1.0774,1.2295 1.7701,2.7165 2.0249,4.3467 0.087,0.5597 0.099,1.7667 0.023,2.3144 -0.3368,2.4064 -1.6661,4.5476 -3.6514,5.8818 -1.3557,0.911 -2.8263,1.3824 -4.4768,1.435 -0.3184,0.01 -0.6591,0.011 -0.7571,9e-4 z m 5.0917,-3.1567 c 0.8493,-0.2044 1.4449,-0.7948 1.6837,-1.6689 0.072,-0.2649 0.08,-0.5663 0.08,-3.5829 0,-3.0167 -0.01,-3.318 -0.08,-3.583 -0.3586,-1.3127 -1.4847,-1.9271 -3.1841,-1.7375 -1.0115,0.1129 -1.6936,0.3943 -2.2127,0.9131 -0.3637,0.3634 -0.5228,0.6391 -0.6451,1.1175 -0.083,0.326 -0.088,0.5008 -0.088,3.2899 0,2.789 0.01,2.9639 0.088,3.2898 0.1227,0.4799 0.2815,0.7542 0.65,1.1225 0.4908,0.4904 1.1514,0.7763 2.0882,0.9037 0.4098,0.056 1.2623,0.022 1.62,-0.064 z m -1.6126,-1.6437 c -0.2744,-0.074 -0.4229,-0.1857 -0.5384,-0.406 -0.091,-0.1725 -0.092,-0.228 -0.092,-3.2244 0,-2.9954 0,-3.0516 0.091,-3.2045 0.1221,-0.2078 0.3288,-0.3401 0.6288,-0.4024 0.4587,-0.095 0.8459,0.043 1.0044,0.3586 0.072,0.1431 0.078,0.3927 0.078,3.2609 10e-5,2.5318 -0.012,3.1324 -0.061,3.2491 -0.158,0.3706 -0.5812,0.5111 -1.111,0.3687 z m -5.1704,1.0718 c 0.4248,-0.1368 0.691,-0.2988 0.943,-0.5739 0.4741,-0.5175 0.6583,-1.3527 0.482,-2.1848 -0.1919,-0.9056 -0.7302,-1.533 -2.1332,-2.4862 -1.0276,-0.6982 -1.2945,-0.934 -1.526,-1.3489 -0.1028,-0.1843 -0.1243,-0.2761 -0.1243,-0.5341 -3e-4,-0.5537 0.2506,-0.783 0.8886,-0.8124 0.6229,-0.029 0.8191,0.1593 0.8649,0.8286 l 0.027,0.3844 0.9792,-0.016 c 0.6292,-0.01 1.0011,-0.034 1.0404,-0.066 0.075,-0.061 0.038,-0.764 -0.058,-1.1315 -0.1934,-0.7329 -0.721,-1.247 -1.4997,-1.4613 -0.3365,-0.093 -1.1452,-0.1267 -1.6189,-0.068 -1.7999,0.222 -2.8279,1.1302 -2.8257,2.4965 0,0.5768 0.1714,1.0222 0.5788,1.5116 0.2492,0.2994 0.3402,0.374 1.6239,1.3305 1.3153,0.98 1.6373,1.3656 1.6425,1.9666 0.01,0.3442 -0.07,0.5127 -0.2849,0.6591 -0.1397,0.095 -0.1932,0.1041 -0.5158,0.088 -0.6757,-0.034 -0.8641,-0.266 -0.8641,-1.0641 v -0.4762 l -0.1668,-0.024 c -0.092,-0.013 -0.5876,-0.03 -1.1016,-0.037 l -0.9347,-0.013 -0.014,0.4673 c -0.024,0.7997 0.1506,1.2852 0.6336,1.7591 0.6495,0.6373 1.7083,0.9696 2.9859,0.9371 0.519,-0.013 0.6827,-0.035 0.9792,-0.1304 z m 45.2211,3.4547 c -0.4895,-0.036 -0.9152,-0.087 -0.9458,-0.1113 -0.066,-0.053 -0.08,-2.2409 -0.015,-2.3439 0.033,-0.051 0.1714,-0.057 0.7893,-0.032 0.4125,0.017 0.8655,0.042 1.0066,0.057 l 0.2566,0.027 -0.012,1.2293 c -0.012,1.1935 -0.014,1.2295 -0.1009,1.235 -0.049,0 -0.4896,-0.024 -0.9792,-0.061 z m -5.2817,-0.3908 c -0.3834,-0.031 -0.7189,-0.07 -0.7455,-0.086 -0.034,-0.021 -0.048,-1.9007 -0.048,-6.508 v -6.4783 l -0.79,0.037 c -0.4346,0.02 -0.8903,0.038 -1.0126,0.038 l -0.2226,9e-4 -0.012,-1.1249 c -0.01,-0.8769 6e-4,-1.1292 0.045,-1.144 0.1259,-0.042 6.1567,-0.4612 6.1883,-0.4297 0.018,0.019 0.029,0.5635 0.022,1.2106 l -0.012,1.1765 -0.4673,0.029 c -0.2571,0.016 -0.7227,0.043 -1.0348,0.06 l -0.5676,0.031 v 6.6273 6.6274 l -0.3227,-0.01 c -0.1774,0 -0.6364,-0.031 -1.0199,-0.062 z m -3.7313,-0.2746 c -0.4529,-0.035 -0.8395,-0.079 -0.8592,-0.099 -0.019,-0.019 -0.1072,-0.5943 -0.1948,-1.2772 -0.087,-0.683 -0.1619,-1.2454 -0.1654,-1.25 -0.016,-0.022 -2.2565,-0.1137 -2.2766,-0.094 -0.012,0.013 -0.094,0.5516 -0.1805,1.1975 -0.087,0.6459 -0.1711,1.1875 -0.1877,1.2036 -0.037,0.036 -2.0387,-0.1089 -2.0804,-0.1505 -0.037,-0.037 1.9656,-14.1005 2.0145,-14.1458 0.05,-0.046 3.099,-0.2645 3.1409,-0.2248 0.057,0.055 2.0524,14.7615 2.0152,14.8585 -0.026,0.067 -0.1285,0.065 -1.226,-0.019 z m -1.5318,-5.0769 c -0.014,-0.092 -0.1966,-1.4788 -0.4047,-3.0822 -0.2081,-1.6035 -0.3916,-2.9654 -0.4077,-3.0266 -0.025,-0.093 -0.035,-0.075 -0.066,0.1112 -0.045,0.2744 -0.7945,5.9946 -0.7945,6.0648 0,0.06 0.24,0.08 1.0832,0.091 l 0.6159,0.01 z m -6.4799,4.4841 c -0.5263,-0.043 -0.9619,-0.081 -0.968,-0.084 -0.01,0 -0.011,-1.2969 -0.011,-2.8758 v -2.8708 h -1.046 -1.046 v 2.7791 c 0,1.5286 -0.015,2.7883 -0.034,2.7993 -0.026,0.015 -2.0403,-0.1232 -2.0919,-0.1439 -0.01,0 -0.012,-2.9187 -0.012,-6.4805 0,-3.5618 0.01,-6.4777 0.012,-6.4796 0.067,-0.021 2.0672,-0.1597 2.0919,-0.1449 0.019,0.011 0.034,1.2837 0.034,2.8281 v 2.808 l 0.3405,-0.029 c 0.1874,-0.016 0.6581,-0.029 1.0461,-0.029 h 0.7054 v -2.8708 c 0,-1.579 0.01,-2.8727 0.011,-2.8749 0.059,-0.022 2.0278,-0.1541 2.0698,-0.1394 0.044,0.016 0.054,1.4278 0.045,6.947 -0.011,6.8918 -0.012,6.9275 -0.1002,6.9334 -0.049,0 -0.5197,-0.03 -1.0461,-0.073 z m -9.133,-0.6685 c -0.5556,-0.043 -1.0357,-0.088 -1.0672,-0.098 -0.041,-0.014 -0.1468,-0.813 -0.3739,-2.8197 -0.1743,-1.5404 -0.3289,-2.7506 -0.3437,-2.6894 -0.015,0.061 -0.1592,1.293 -0.321,2.7373 -0.1619,1.4443 -0.3081,2.6397 -0.3251,2.6565 -0.03,0.03 -2.8528,-0.1673 -2.8876,-0.2021 -0.01,-0.01 -0.1663,-1.2372 -0.3474,-2.7273 -0.1811,-1.4901 -0.4951,-4.0558 -0.6975,-5.7017 -0.2359,-1.9181 -0.3527,-3.0072 -0.3251,-3.0336 0.057,-0.055 2.0249,-0.2007 2.0675,-0.1532 0.018,0.02 0.067,0.3274 0.1078,0.6824 0.4838,4.1856 0.8758,7.496 0.8893,7.5095 0.029,0.029 0.061,-0.269 0.4743,-4.3478 0.2217,-2.1902 0.4125,-3.9914 0.4238,-4.0028 0.049,-0.049 1.9843,-0.1615 2.0175,-0.1172 0.019,0.025 0.2324,1.9935 0.4743,4.3739 0.242,2.3804 0.4529,4.3032 0.4689,4.2729 0.016,-0.03 0.041,-0.1954 0.057,-0.3668 0.1213,-1.3477 0.8811,-8.4146 0.9074,-8.4403 0.038,-0.037 1.7507,-0.1713 1.8026,-0.1415 0.019,0.011 0.034,0.074 0.034,0.1419 0,0.1274 -1.3149,12.0953 -1.3613,12.3901 l -0.026,0.1669 -0.3188,-0.01 c -0.1753,0 -0.7733,-0.041 -1.3289,-0.084 z m 26.0821,-1.5088 c -0.3354,-0.014 -0.6279,-0.046 -0.6501,-0.07 -0.022,-0.024 -0.094,-1.2963 -0.1592,-2.8263 -0.105,-2.4546 -0.1188,-3.1969 -0.1178,-6.3092 0,-1.94 0.01,-3.5296 0.012,-3.5324 0.01,0 0.4618,-0.04 1.0126,-0.083 0.6658,-0.052 1.0201,-0.063 1.0571,-0.034 0.043,0.035 0.056,0.7864 0.054,3.4992 0,3.0313 -0.018,3.813 -0.1259,6.3735 -0.068,1.6051 -0.1386,2.942 -0.1565,2.971 -0.018,0.029 -0.096,0.049 -0.1745,0.045 -0.079,0 -0.4164,-0.019 -0.7519,-0.033 z"
       style="fill:#ffffff;stroke-width:1" />
  </g>
</svg>
